<svg width="20" height="20" viewBox="0 0 20 20" fill="none" xmlns="http://www.w3.org/2000/svg">
<path d="M16.25 2.83459H14.375V2.20959C14.375 2.04383 14.3092 1.88486 14.1919 1.76765C14.0747 1.65044 13.9158 1.58459 13.75 1.58459C13.5842 1.58459 13.4253 1.65044 13.3081 1.76765C13.1908 1.88486 13.125 2.04383 13.125 2.20959V2.83459H6.875V2.20959C6.875 2.04383 6.80915 1.88486 6.69194 1.76765C6.57473 1.65044 6.41576 1.58459 6.25 1.58459C6.08424 1.58459 5.92527 1.65044 5.80806 1.76765C5.69085 1.88486 5.625 2.04383 5.625 2.20959V2.83459H3.75C3.41848 2.83459 3.10054 2.96629 2.86612 3.20071C2.6317 3.43513 2.5 3.75307 2.5 4.08459V16.5846C2.5 16.9161 2.6317 17.2341 2.86612 17.4685C3.10054 17.7029 3.41848 17.8346 3.75 17.8346H16.25C16.5815 17.8346 16.8995 17.7029 17.1339 17.4685C17.3683 17.2341 17.5 16.9161 17.5 16.5846V4.08459C17.5 3.75307 17.3683 3.43513 17.1339 3.20071C16.8995 2.96629 16.5815 2.83459 16.25 2.83459ZM5.625 4.08459V4.70959C5.625 4.87536 5.69085 5.03433 5.80806 5.15154C5.92527 5.26875 6.08424 5.33459 6.25 5.33459C6.41576 5.33459 6.57473 5.26875 6.69194 5.15154C6.80915 5.03433 6.875 4.87536 6.875 4.70959V4.08459H13.125V4.70959C13.125 4.87536 13.1908 5.03433 13.3081 5.15154C13.4253 5.26875 13.5842 5.33459 13.75 5.33459C13.9158 5.33459 14.0747 5.26875 14.1919 5.15154C14.3092 5.03433 14.375 4.87536 14.375 4.70959V4.08459H16.25V6.58459H3.75V4.08459H5.625ZM16.25 16.5846H3.75V7.83459H16.25V16.5846Z" fill="#8B8D9B"/>
</svg>
