<svg width="28" height="28" viewBox="0 0 28 28" fill="none" xmlns="http://www.w3.org/2000/svg">
<circle cx="14" cy="14" r="14" fill="#1E1F28"/>
<path d="M12.9055 9.77211L18.811 13.2717C18.9461 13.3515 19.0568 13.4598 19.1333 13.5869C19.2099 13.7139 19.25 13.8558 19.25 14C19.25 14.1442 19.2099 14.2861 19.1333 14.4131C19.0568 14.5402 18.9461 14.6485 18.811 14.7283L12.9055 18.2279C12.7573 18.3158 12.5849 18.3663 12.4069 18.374C12.2289 18.3816 12.0518 18.3462 11.8947 18.2714C11.7376 18.1966 11.6062 18.0853 11.5147 17.9494C11.4232 17.8135 11.3749 17.658 11.375 17.4995V10.5005C11.3749 10.342 11.4232 10.1865 11.5147 10.0506C11.6062 9.91466 11.7376 9.80336 11.8947 9.72858C12.0518 9.6538 12.2289 9.61836 12.4069 9.62603C12.5849 9.63369 12.7573 9.68418 12.9055 9.77211Z" fill="url(#paint0_linear_642_1057)"/>
<defs>
<linearGradient id="paint0_linear_642_1057" x1="11.375" y1="14.0847" x2="19.4925" y2="14.2299" gradientUnits="userSpaceOnUse">
<stop stop-color="#9F55FF"/>
<stop offset="1" stop-color="#FF46B9"/>
</linearGradient>
</defs>
</svg>
