<svg width="46" height="45" viewBox="0 0 46 45" fill="none" xmlns="http://www.w3.org/2000/svg">
<g filter="url(#filter0_d_615_474)">
<path d="M30.278 22.0223L27.0587 24.8318L28.0231 29.0147C28.0741 29.2334 28.0595 29.4623 27.9812 29.6727C27.9029 29.8831 27.7642 30.0658 27.5827 30.1979C27.4011 30.33 27.1846 30.4056 26.9602 30.4153C26.7359 30.425 26.5137 30.3684 26.3214 30.2525L22.6731 28.0397L19.0327 30.2525C18.8404 30.3684 18.6181 30.425 18.3938 30.4153C18.1695 30.4056 17.953 30.33 17.7714 30.1979C17.5898 30.0658 17.4512 29.8831 17.3728 29.6727C17.2945 29.4623 17.2799 29.2334 17.331 29.0147L18.2939 24.8361L15.0739 22.0223C14.9036 21.8754 14.7805 21.6815 14.7199 21.4649C14.6594 21.2483 14.6641 21.0187 14.7335 20.8048C14.803 20.5908 14.9341 20.4022 15.1103 20.2625C15.2865 20.1228 15.5001 20.0382 15.7242 20.0193L19.9685 19.6517L21.6252 15.7001C21.7117 15.4928 21.8577 15.3156 22.0446 15.1911C22.2316 15.0665 22.4513 15 22.676 15C22.9006 15 23.1203 15.0665 23.3073 15.1911C23.4942 15.3156 23.6402 15.4928 23.7267 15.7001L25.3884 19.6517L29.6313 20.0193C29.8554 20.0382 30.0689 20.1228 30.2452 20.2625C30.4214 20.4022 30.5525 20.5908 30.6219 20.8048C30.6914 21.0187 30.6961 21.2483 30.6356 21.4649C30.575 21.6815 30.4519 21.8754 30.2816 22.0223H30.278Z" fill="#FEEA35"/>
</g>
<defs>
<filter id="filter0_d_615_474" x="0.269955" y="0.59222" width="44.8156" height="44.2319" filterUnits="userSpaceOnUse" color-interpolation-filters="sRGB">
<feFlood flood-opacity="0" result="BackgroundImageFix"/>
<feColorMatrix in="SourceAlpha" type="matrix" values="0 0 0 0 0 0 0 0 0 0 0 0 0 0 0 0 0 0 127 0" result="hardAlpha"/>
<feOffset/>
<feGaussianBlur stdDeviation="7.20389"/>
<feComposite in2="hardAlpha" operator="out"/>
<feColorMatrix type="matrix" values="0 0 0 0 0.996078 0 0 0 0 0.917647 0 0 0 0 0.207843 0 0 0 0.25 0"/>
<feBlend mode="normal" in2="BackgroundImageFix" result="effect1_dropShadow_615_474"/>
<feBlend mode="normal" in="SourceGraphic" in2="effect1_dropShadow_615_474" result="shape"/>
</filter>
</defs>
</svg>
